<svg xmlns="http://www.w3.org/2000/svg" width="256" height="256" viewBox="0 0 256 256.00001"><circle cx="128" cy="128" r="128" style="fill:#0074e0;fill-opacity:1;stroke-width:.5"/><path fill="#fff" d="M101.32 40.305a19.943 19.943 0 0 0-6.45 1.293c-12.657 4.817-19.09 22.204-18.324 45.57-16.453 3.495-29.269 9.72-37.486 18.664-.406.481-1.35 1.69-1.02 2.276.255.434 1.095-.057 1.453-.303 9.52-6.658 21.715-10.256 37.592-12.523 2.266 24.925 12.835 56.525 30.223 81.913-9.587 3.76-17.615 4.005-22.026-.651-6.073-6.423-5.865-17.35-1.426-30.223-2.248-5.44-4.581-12.127-6.026-16.85-18.342 29.373-22.28 56.886-8.5 68.097 10.493 8.538 28.788 5.43 48.622-6.914 11.333 12.505 23.092 20.495 34.945 23.13.586.123 2.145.331 2.476-.254.283-.435-.557-.916-.944-1.105-10.531-4.92-19.75-13.676-29.648-26.294 20.41-14.413 42.501-39.357 55.724-67.2 8.047 6.422 12.279 13.252 10.446 19.4-2.502 8.463-12.081 13.741-25.436 16.339-3.589 4.684-8.207 10.022-11.588 13.648 34.681 1.21 60.446-9.114 63.28-26.663 2.144-13.355-9.69-27.635-30.3-38.648 5.196-16 6.216-30.214 2.58-41.793-.217-.604-.794-2.022-1.465-2.022-.472 0-.472.964-.472 1.399 1.01 11.579-1.963 23.943-7.941 38.78-22.715-10.502-55.357-17.171-86.08-14.687 1.539-10.144 5.335-17.218 11.569-18.71 8.585-2.069 17.954 3.598 26.879 13.864 5.846.756 12.78 2.088 17.606 3.202-14.24-26.784-32.738-43.271-48.263-42.735Zm-8.567 53.682c27.692-.926 55.913 5.592 80.139 19.646-13.078 24.437-32.792 45.654-57.104 59.557-14.632-23.494-23.091-51.207-23.035-79.203Z"/></svg>
