<svg id="Layer_1" data-name="Layer 1" xmlns="http://www.w3.org/2000/svg" viewBox="0 0 575.54 714"><defs><style>.cls-1{fill:#0072ce;fill-rule:evenodd;}</style></defs><title>playstation-store-logo-freelogovectors.net</title><path class="cls-1" d="M639,195.91a5.29,5.29,0,0,0-5.58-4.75L576.54,183a11.18,11.18,0,0,0-1.63-.21c-11.41,0-38.42-.08-79.14-.13-4.82-37.06-18.9-98.81-45.44-134.68-14.78-20-31.95-30-51-29.94a52.76,52.76,0,0,0-32.82,11.11q-15.37-9-32-7.36c-53.59,5.45-70.33,84.29-73.83,161q-70.51.32-141,1.72a6.24,6.24,0,0,0-6.37,5.59c-1.3,21.53-6.28,106-13.3,235.82-7.43,137.29-11.68,212.19-12.7,232a5.68,5.68,0,0,0,5.14,5.77L318.82,698l223.83,33.92a7,7,0,0,0,5.1-1.13v0l110.6-70.7a9.18,9.18,0,0,0,4.41-8.49ZM399.43,39.55c10-.07,19.21,4.7,28.19,14.51,27.17,29.64,41.22,93,46.47,128.52l-34,0C432.45,135.22,413.42,74.84,384,43.45a33.3,33.3,0,0,1,15.42-3.9ZM368,57.71c25.63,26.55,43,81.38,50.43,124.84q-32.53,0-70.89,0H335.34c2.45-39.76,11-96.2,32.61-124.81ZM270.87,483.19l-61.34,22c-10.84,3.87-12.46,9.37-3.71,12.21,8.9,3,24.7,2.17,35.57-1.82l29.48-10.63v30.9c-1.89.33-4,.64-5.94,1a191.43,191.43,0,0,1-91.64-7.36c-28.78-8.05-33.61-25-20.46-34.77C165,485.7,185.59,479,185.59,479l85.28-30.4Zm65.74-440a28.73,28.73,0,0,1,14.13,2.14C323.9,81.91,316.17,146.46,314,182.56q-16.56,0-31.91.09c4-86,23.36-136.29,54.55-139.48ZM341.93,351V571.49l-59.54-18.87v-263c25.34,4.67,62.15,15.85,82,22.44,50.32,17.32,67.42,38.88,67.42,87.27,0,47.29-29.16,65.26-66.23,47.31V358.63c0-10.27-1.9-19.84-11.6-22.55-7.43-2.39-12.06,4.52-12.06,14.93ZM507.87,505.38c-7.22,9-24.69,15.43-24.69,15.43L353.25,567.49V533l95.62-34c10.84-4,12.47-9.45,3.72-12.32-8.91-2.91-24.75-2.06-35.7,1.86L353.25,511V475.16l3.65-1.24a217.14,217.14,0,0,1,44.32-9.3c25.86-2.85,57.61.35,82.53,9.75,28.05,8.93,31.19,21.93,24.12,31Z" transform="translate(-87.23 -18)"/></svg>
